# xmcd
# 
# Track frame offsets:
#     150
#     24447
#     41812
#     64125
#     79095
#     95995
#     112652
#     127040
#     144220
#     158032
#     175365
#     189597
#     209675
#     225850
#     243332
#     258650
#     274135
#     289357
#     307252
# 
# Disc length: 4321
# 
# Revision: 4
# Processed by: cddbd v1.5.2PL0 Copyright (c) Steve Scherf et al.
# Submitted via: fre:ac v1.0.17
# 
DISCID=1a10df13
DTITLE=Various Artist - Dance MAX Vol. 1/99
DYEAR=0
DGENRE=
TTITLE0=Mr. Oizo - Flat Beat
TTITLE1=Blue Nature - A Life So Changed [K. Brand Radio Edit]
TTITLE2=DJ Sakin and Friends - Dragonfly [Special Dance Max Remix]
TTITLE3=Paffendorf - Allnight [US Mix Radio Cut]
TTITLE4=Mellow Trax - Phuture Vibes [Radio Club Mix]
TTITLE5=Cosmic Gate - The Drums [Video Mix]
TTITLE6=Megamind - Krach! [Vocal Cut]
TTITLE7=Pulsedriver - Kiss That Sound [Club Radio Edit]
TTITLE8=Lambda - Hold On Tight 2000 [Future Breeze Mix]
TTITLE9=Silent Breed - In Vivo [Radio Edit]
TTITLE10=Binary Finary - 1999 [Kay Cee Radio Mix]
TTITLE11=Emmanuel Top - Turkish Bazar 2000 [Thomas P. Heckmann Remix Short Cut]
TTITLE12=Taucher Battles Talla 2XLC - Nightshift [DJ Taucher Radio Edit]
TTITLE13=Viper - Blue Sunshine [Radio Edit]
TTITLE14=Fridge - Paradise [Radio Edit]
TTITLE15=Veracocha - Carte Blanche [FM Version]
TTITLE16=Der Verfall - Der Verfall #2 [Radio Edit]
TTITLE17=Tomcraft Vs. Housepunk - Punk Da Funk [Radio Edit 1]
TTITLE18=Green Court - Moonflight [Vocal Radio Edit]
EXTD=
EXTT0=
EXTT1=
EXTT2=
EXTT3=
EXTT4=
EXTT5=
EXTT6=
EXTT7=
EXTT8=
EXTT9=
EXTT10=
EXTT11=
EXTT12=
EXTT13=
EXTT14=
EXTT15=
EXTT16=
EXTT17=
EXTT18=
PLAYORDER=
